<?xml version="1.0" encoding="UTF-8"?>
<svg id="Layer_5" data-name="Layer 5" xmlns="http://www.w3.org/2000/svg" viewBox="0 0 104.09 100.95">
  <path d="M63.91,54.06l12.57-14.96c2.97-.01,8.64-.81,13.77-5.94,10.41-10.41,1.93-30.08,1.56-30.91-.41-.93-1.4-1.47-2.4-1.32-1.01.15-1.79.97-1.9,1.98,0,.08-.9,7.74-5.65,8.23-.58.06-1.12.09-1.67.09-1.37,0-2.44-.19-3.47-.37-.91-.16-1.78-.31-2.72-.31-2.09,0-3.99.79-6.16,2.55-4.47,3.63-5.05,9.9-5.06,12.77l-14.7,12.35-16.11-16.11s-.02-.01-.03-.02c-.09-.08-.18-.16-.28-.23-.02-.01-.04-.03-.05-.04-.09-.06-.18-.11-.27-.15l-15.97-7.52-6.41-3.02c-.86-.41-1.88-.23-2.55.45-.08.08-.14.16-.21.24,0,0-.01.02-.02.03-.04.05-.07.11-.11.17-.02.04-.05.08-.08.12-.02.04-.04.09-.05.13-.03.06-.06.12-.08.19-.01.04-.02.07-.03.11-.02.07-.04.14-.06.22,0,.04,0,.08-.01.12,0,.07-.02.15-.02.22,0,.04,0,.07,0,.11,0,.08,0,.16.01.23,0,.03.01.07.02.1.01.08.03.16.05.24.01.04.03.07.04.11.03.07.05.15.08.22l10.53,22.38c.04.09.09.18.15.26.01.02.02.03.04.05.07.11.15.21.24.3,0,0,.01.02.02.02l17.75,17.75c-6.43,6.77-13.06,14.35-18.18,20.84-3.45,4.37-6.05,8.01-7.73,10.83-1.86,3.12-3.32,6.26-1.4,8.18.41.41,1.15.9,2.32.9,5.8,0,24.96-16.31,37.53-28.22l29.49,29.49c.44.44,1.02.66,1.59.66s1.15-.22,1.59-.66l4.33-4.33L24.46,32.82l3.19-3.19,59.78,59.78,4.33-4.33c.88-.88.88-2.31,0-3.18l-27.84-27.84ZM19.21,31.7l-3.94-8.38,2.88-2.88,8.38,3.94-7.31,7.31ZM51.28,41.43l13.51-11.35,7.27,7.27-11.35,13.51-9.43-9.43Z"/>
</svg>