<?xml version="1.0" encoding="UTF-8"?>
<svg id="Layer_4" data-name="Layer 4" xmlns="http://www.w3.org/2000/svg" viewBox="0 0 104.09 100.95">
  <path d="M59.54,83.25c-4.07-5.56-2.86-13.36,2.69-17.43,5.56-4.07,13.36-2.86,17.43,2.69.53.72.96,1.48,1.31,2.26l17.83-13.05-13.05-17.82c-.57.64-1.22,1.23-1.93,1.75-5.56,4.07-13.36,2.86-17.43-2.69-4.07-5.56-2.86-13.36,2.69-17.43.72-.53,1.48-.96,2.26-1.31L58.28,2.39l-17.82,13.05c-.35-.78-.79-1.54-1.31-2.26-4.07-5.56-11.87-6.76-17.43-2.69-5.56,4.07-6.76,11.87-2.69,17.43.53.72,1.12,1.36,1.75,1.93L2.95,42.91l13.05,17.82c-.78.35-1.54.79-2.26,1.31-5.56,4.07-6.76,11.87-2.69,17.43,4.07,5.56,11.87,6.76,17.43,2.69.72-.53,1.36-1.12,1.93-1.75l13.05,17.83,17.82-13.05c-.64-.57-1.23-1.22-1.75-1.93Z"/>
</svg>