<?xml version="1.0" encoding="UTF-8"?>
<svg id="Layer_1" data-name="Layer 1" xmlns="http://www.w3.org/2000/svg" viewBox="0 0 994.97 978.39">
  <defs>
    <style>
      .cls-1 {
        fill: #242930;
        fill-rule: evenodd;
      }
    </style>
  </defs>
  <path class="cls-1" d="M497.89,0C222.57,0,0,224.21,0,501.59c0,221.73,142.61,409.41,340.45,475.84,24.73,4.99,33.79-10.79,33.79-24.07,0-11.63-.82-51.49-.82-93.02-138.5,29.9-167.34-59.79-167.34-59.79-22.26-58.13-55.24-73.07-55.24-73.07-45.33-30.73,3.3-30.73,3.3-30.73,50.28,3.32,76.67,51.49,76.67,51.49,44.51,76.4,116.22,54.81,145.08,41.52,4.12-32.39,17.32-54.81,31.33-67.26-110.47-11.63-226.69-54.81-226.69-247.48,0-54.81,19.77-99.65,51.1-134.53-4.94-12.45-22.26-63.95,4.95-132.88,0,0,42.04-13.29,136.83,51.49,40.58-10.98,82.44-16.57,124.48-16.61,42.04,0,84.9,5.82,124.47,16.61,94.8-64.78,136.84-51.49,136.84-51.49,27.21,68.93,9.89,120.42,4.94,132.88,32.15,34.88,51.11,79.72,51.11,134.53,0,192.67-116.22,235.02-227.51,247.48,18.14,15.78,33.79,45.67,33.79,93.01,0,67.26-.82,121.25-.82,137.85,0,13.29,9.07,29.08,33.79,24.09,197.84-66.45,340.45-254.12,340.45-475.85C995.78,224.21,772.39,0,497.89,0Z"/>
</svg>