<?xml version="1.0" encoding="UTF-8"?>
<svg id="Layer_4" data-name="Layer 4" xmlns="http://www.w3.org/2000/svg" viewBox="0 0 800 800">
  <defs>
    <style>
      .cls-1 {
        fill: #fff;
        fill-rule: evenodd;
      }
    </style>
  </defs>
  <path class="cls-1" d="M400,11.78C180.08,11.78,1.96,189.9,1.96,409.82c0,176.13,113.94,324.9,272.16,377.64,19.9,3.48,27.37-8.46,27.37-18.91,0-9.45-.5-40.8-.5-74.14-100.01,18.41-125.88-24.38-133.84-46.77-4.48-11.44-23.88-46.77-40.8-56.22-13.93-7.46-33.83-25.87-.5-26.37,31.35-.5,53.74,28.86,61.2,40.8,35.82,60.2,93.04,43.29,115.93,32.84,3.48-25.87,13.93-43.29,25.38-53.24-88.56-9.95-181.11-44.28-181.11-196.53,0-43.29,15.42-79.11,40.8-106.97-3.98-9.95-17.91-50.75,3.98-105.48,0,0,33.34-10.45,109.46,40.8,31.84-8.96,65.68-13.43,99.51-13.43s67.67,4.48,99.51,13.43c76.13-51.75,109.46-40.8,109.46-40.8,21.89,54.73,7.96,95.53,3.98,105.48,25.38,27.86,40.8,63.19,40.8,106.97,0,152.75-93.04,186.58-181.61,196.53,14.43,12.44,26.87,36.32,26.87,73.64,0,53.24-.5,96.03-.5,109.46,0,10.45,7.46,22.89,27.37,18.91,157.23-52.74,271.17-202.01,271.17-377.64,0-219.92-178.12-398.04-398.04-398.04Z"/>
</svg>