<?xml version="1.0" encoding="UTF-8"?>
<svg id="Layer_1" data-name="Layer 1" xmlns="http://www.w3.org/2000/svg" viewBox="0 0 800 800">
  <defs>
    <style>
      .cls-1 {
        fill: #fff;
      }
    </style>
  </defs>
  <path class="cls-1" d="M466.79,393.04l-93.58-43.67c-8.17-3.79-14.88.46-14.88,9.5v82.25c0,9.04,6.71,13.29,14.88,9.5l93.54-43.67c8.21-3.83,8.21-10.08.04-13.92h0ZM400,0C179.08,0,0,179.08,0,400s179.08,400,400,400,400-179.08,400-400S620.92,0,400,0ZM400,562.5c-204.75,0-208.33-18.46-208.33-162.5s3.58-162.5,208.33-162.5,208.33,18.46,208.33,162.5-3.58,162.5-208.33,162.5Z"/>
</svg>