<?xml version="1.0" encoding="UTF-8"?>
<svg xmlns="http://www.w3.org/2000/svg" viewBox="0 0 256 256">
  <defs>
    <style>
      .cls-1 {
        fill: #432c82;
      }

      .cls-2 {
        fill: #fff;
      }

      .cls-3, .cls-4 {
        fill-rule: evenodd;
      }

      .cls-4 {
        fill: #7f54b3;
      }
    </style>
  </defs>
  <g id="Layer_1" data-name="Layer 1">
    <rect class="cls-1" width="256" height="256" rx="60" ry="60"/>
  </g>
  <g id="Layer_2" data-name="Layer 2">
    <path class="cls-2" d="M35.45,69.66c1.19-1.62,2.99-2.47,5.37-2.64,4.35-.34,6.82,1.7,7.42,6.14,2.64,17.83,5.54,32.93,8.61,45.29l18.68-35.57c1.71-3.24,3.84-4.95,6.4-5.12,3.75-.26,6.06,2.13,6.99,7.16,2.13,11.34,4.86,20.98,8.1,29.17,2.22-21.67,5.97-37.28,11.26-46.91,1.28-2.39,3.16-3.58,5.63-3.75,1.96-.17,3.75.43,5.37,1.71s2.47,2.9,2.64,4.86c.09,1.54-.17,2.81-.85,4.09-3.33,6.14-6.06,16.46-8.27,30.79-2.13,13.9-2.9,24.74-2.39,32.5.17,2.13-.17,4.01-1.02,5.63-1.02,1.88-2.56,2.9-4.52,3.07-2.22.17-4.52-.85-6.74-3.16-7.93-8.1-14.25-20.22-18.85-36.34-5.55,10.92-9.64,19.11-12.28,24.57-5.03,9.64-9.3,14.59-12.88,14.84-2.3.17-4.26-1.79-5.97-5.89-4.35-11.17-9.04-32.76-14.07-64.74-.34-2.22.17-4.18,1.36-5.71h0ZM218.76,83.06c-3.07-5.37-7.59-8.61-13.65-9.9-1.62-.34-3.16-.51-4.61-.51-8.19,0-14.84,4.26-20.05,12.8-4.44,7.25-6.65,15.27-6.65,24.05,0,6.57,1.36,12.2,4.09,16.89,3.07,5.37,7.59,8.61,13.65,9.89,1.62.34,3.16.51,4.61.51,8.27,0,14.93-4.26,20.05-12.8,4.44-7.34,6.65-15.35,6.65-24.14.09-6.65-1.36-12.2-4.09-16.8h0ZM208.01,106.68c-1.19,5.63-3.33,9.81-6.48,12.62-2.47,2.22-4.78,3.16-6.91,2.73-2.05-.43-3.75-2.22-5.03-5.54-1.02-2.64-1.54-5.29-1.54-7.76,0-2.13.17-4.26.6-6.23.77-3.5,2.22-6.91,4.52-10.15,2.82-4.18,5.8-5.89,8.87-5.29,2.05.43,3.75,2.22,5.03,5.54,1.02,2.64,1.54,5.29,1.54,7.76,0,2.22-.17,4.35-.6,6.31h0ZM165.36,83.06c-3.07-5.37-7.68-8.61-13.65-9.9-1.62-.34-3.16-.51-4.61-.51-8.19,0-14.84,4.26-20.05,12.8-4.44,7.25-6.65,15.27-6.65,24.05,0,6.57,1.36,12.2,4.09,16.89,3.07,5.37,7.59,8.61,13.65,9.89,1.62.34,3.16.51,4.61.51,8.27,0,14.93-4.26,20.05-12.8,4.44-7.34,6.65-15.35,6.65-24.14,0-6.65-1.36-12.2-4.09-16.8h0ZM154.53,106.68c-1.19,5.63-3.33,9.81-6.48,12.62-2.47,2.22-4.78,3.16-6.91,2.73-2.05-.43-3.75-2.22-5.03-5.54-1.02-2.64-1.53-5.29-1.53-7.76,0-2.13.17-4.26.6-6.23.77-3.5,2.22-6.91,4.52-10.15,2.81-4.18,5.8-5.89,8.87-5.29,2.05.43,3.75,2.22,5.03,5.54,1.02,2.64,1.54,5.29,1.54,7.76.09,2.22-.17,4.35-.6,6.31h0Z"/>
    <path class="cls-4" d="M214.02,51.93H44.62c-10.72,0-19.4,8.76-19.32,19.4v64.67c0,10.72,8.68,19.4,19.4,19.4h80.24l36.67,20.42-8.34-20.42h60.75c10.72,0,19.4-8.68,19.4-19.4v-64.67c0-10.72-8.68-19.4-19.4-19.4ZM41.04,66.9c-2.38.17-4.17,1.02-5.36,2.64-1.19,1.53-1.62,3.49-1.36,5.7,5.02,31.91,9.7,53.43,14.04,64.58,1.7,4.08,3.66,6.04,5.96,5.87,3.57-.26,7.83-5.19,12.85-14.81,2.64-5.45,6.72-13.61,12.25-24.51,4.59,16.08,10.89,28.16,18.8,36.25,2.21,2.3,4.51,3.32,6.72,3.15,1.96-.17,3.49-1.19,4.51-3.06.85-1.62,1.19-3.49,1.02-5.62-.51-7.74.26-18.55,2.38-32.42,2.21-14.29,4.93-24.59,8.25-30.72.68-1.28.94-2.55.85-4.08-.17-1.96-1.02-3.57-2.64-4.85s-3.4-1.87-5.36-1.7c-2.47.17-4.34,1.36-5.62,3.74-5.28,9.61-9.02,25.19-11.23,46.8-3.23-8.17-5.96-17.78-8.08-29.1-.94-5.02-3.23-7.4-6.98-7.15-2.55.17-4.68,1.87-6.38,5.11l-18.63,35.48c-3.06-12.34-5.96-27.4-8.59-45.18-.6-4.42-3.06-6.47-7.4-6.13ZM205.01,73.03c6.04,1.28,10.55,4.51,13.61,9.87,2.72,4.59,4.08,10.13,4.08,16.76,0,8.76-2.21,16.76-6.64,24.08-5.11,8.51-11.74,12.76-20,12.76-1.45,0-2.98-.17-4.6-.51-6.04-1.28-10.55-4.51-13.61-9.87-2.72-4.68-4.08-10.3-4.08-16.85,0-8.76,2.21-16.76,6.64-23.99,5.19-8.51,11.83-12.76,20-12.76,1.45,0,2.98.17,4.59.51ZM201.43,119.06c3.15-2.81,5.28-6.98,6.47-12.59.34-1.96.6-4.08.6-6.3,0-2.47-.51-5.11-1.53-7.74-1.28-3.32-2.98-5.11-5.02-5.53-3.06-.6-6.04,1.11-8.85,5.28-2.3,3.23-3.74,6.64-4.51,10.13-.43,1.96-.6,4.08-.6,6.21,0,2.47.51,5.11,1.53,7.74,1.28,3.32,2.98,5.11,5.02,5.53,2.13.43,4.42-.51,6.89-2.72ZM165.27,82.9c-3.06-5.36-7.66-8.59-13.61-9.87-1.62-.34-3.15-.51-4.6-.51-8.17,0-14.8,4.25-20,12.76-4.42,7.23-6.64,15.23-6.64,23.99,0,6.55,1.36,12.17,4.08,16.85,3.06,5.36,7.57,8.59,13.61,9.87,1.62.34,3.15.51,4.6.51,8.25,0,14.89-4.25,20-12.76,4.42-7.32,6.64-15.32,6.64-24.08,0-6.64-1.36-12.17-4.08-16.76ZM154.55,106.47c-1.19,5.62-3.32,9.78-6.47,12.59-2.47,2.21-4.76,3.15-6.89,2.72-2.04-.43-3.74-2.21-5.02-5.53-1.02-2.64-1.53-5.28-1.53-7.74,0-2.13.17-4.25.6-6.21.77-3.49,2.21-6.89,4.51-10.13,2.81-4.17,5.79-5.87,8.85-5.28,2.04.43,3.74,2.21,5.02,5.53,1.02,2.64,1.53,5.28,1.53,7.74,0,2.21-.17,4.34-.6,6.3Z"/>
    <path class="cls-3" d="M36.26,183.56c-2.8,2.75-4.17,6.26-4.17,10.52,0,4.55,1.38,8.26,4.13,11.06,2.75,2.8,6.34,4.22,10.81,4.22,1.29,0,2.75-.21,4.34-.67v-6.76c-1.46.42-2.71.63-3.8.63-2.21,0-3.97-.75-5.3-2.21-1.34-1.5-2-3.51-2-6.05,0-2.38.67-4.34,1.96-5.84,1.34-1.54,2.96-2.3,4.97-2.3,1.29,0,2.67.21,4.17.63v-6.76c-1.38-.38-2.92-.54-4.55-.54-4.26-.04-7.76,1.34-10.56,4.09ZM65.23,179.43c-3.84,0-6.85,1.29-9.02,3.84-2.17,2.55-3.21,6.14-3.21,10.73,0,4.97,1.09,8.77,3.21,11.4,2.13,2.63,5.26,3.97,9.35,3.97s7.01-1.34,9.14-3.97c2.13-2.63,3.21-6.34,3.21-11.1s-1.09-8.43-3.26-11.02c-2.21-2.55-5.34-3.84-9.43-3.84ZM68.53,201.13c-.75,1.17-1.88,1.75-3.3,1.75-1.34,0-2.34-.58-3.05-1.75-.71-1.17-1.04-3.51-1.04-7.05,0-5.47,1.38-8.18,4.17-8.18s4.42,2.75,4.42,8.31c-.04,3.42-.46,5.76-1.21,6.93ZM98.54,180.22l-1.5,6.39c-.38,1.63-.75,3.3-1.09,5.01l-.83,4.42c-.79-4.42-1.88-9.68-3.26-15.82h-9.68l-3.63,28.42h7.26l1.96-19.58,4.97,19.58h5.18l4.76-19.53,2.05,19.53h7.6l-3.84-28.42h-9.93ZM133.31,180.22l-1.5,6.39c-.38,1.63-.75,3.3-1.09,5.01l-.83,4.42c-.79-4.42-1.88-9.68-3.26-15.82h-9.68l-3.63,28.42h7.26l1.96-19.58,4.97,19.58h5.18l4.72-19.53,2.05,19.53h7.6l-3.84-28.42h-9.89ZM156.93,197.42h6.8v-5.89h-6.8v-5.22h7.85v-6.05h-15.53v28.42h15.57v-6.05h-7.89v-5.22ZM186.44,192.91c.79-1.29,1.21-2.63,1.21-4.01,0-2.67-1.04-4.8-3.13-6.34-2.09-1.54-4.97-2.34-8.56-2.34h-8.93v28.42h7.68v-12.94h.13l6.22,12.94h8.1l-6.14-12.81c1.46-.67,2.63-1.63,3.42-2.92ZM174.67,192.45v-6.76c1.84.04,3.13.33,3.92.92.79.58,1.17,1.5,1.17,2.84,0,1.96-1.71,2.96-5.09,3.01ZM192.16,183.56c-2.8,2.75-4.17,6.26-4.17,10.52,0,4.55,1.38,8.26,4.13,11.06,2.76,2.8,6.34,4.22,10.81,4.22,1.29,0,2.76-.21,4.34-.67v-6.76c-1.46.42-2.71.63-3.8.63-2.21,0-3.96-.75-5.3-2.21-1.34-1.5-2-3.51-2-6.05,0-2.38.67-4.34,1.96-5.84,1.34-1.54,2.96-2.3,4.97-2.3,1.29,0,2.67.21,4.17.63v-6.76c-1.38-.38-2.92-.54-4.55-.54-4.22-.04-7.76,1.34-10.56,4.09ZM217.08,202.55v-5.18h6.8v-5.89h-6.8v-5.22h7.89v-6.05h-15.53v28.42h15.57v-6.05h-7.93v-.04Z"/>
  </g>
</svg>